<?xml version="1.0" encoding="UTF-8"?>
<svg width="17px" height="18px" viewBox="0 0 17 18" version="1.1" xmlns="http://www.w3.org/2000/svg" xmlns:xlink="http://www.w3.org/1999/xlink">
    <title>tiktok</title>
    <g id="Web" stroke="none" stroke-width="1" fill="none" fill-rule="evenodd">
        <g id="Footer-Ver-1-1" transform="translate(-338.000000, -5256.000000)" fill="#FFFFFF" fill-rule="nonzero">
            <g id="Group-3" transform="translate(100.000000, 5243.000000)">
                <g id="Group-2-Copy-4" transform="translate(224.000000, 0.000000)">
                    <g id="tiktok" transform="translate(14.400000, 13.300000)">
                        <path d="M8.40320624,0.0141664891 C9.40843854,0 10.4059973,0.00708324457 11.4035561,0 C11.4649443,1.08373642 11.8869884,2.18872257 12.7464237,2.95371299 C13.6058589,3.73995313 14.8182765,4.10119861 16,4.22161376 L16,7.07616133 C14.8950118,7.0407451 13.7823501,6.82824777 12.7771178,6.3890866 C12.3397266,6.20492224 11.9330296,5.97117517 11.5340061,5.73034486 C11.5263326,7.79865227 11.5416796,9.86695969 11.518659,11.9281839 C11.4572708,12.9198381 11.1042885,13.9044091 10.4827326,14.7189822 C9.4775003,16.0789652 7.73560921,16.9643707 5.94767694,16.9927037 C4.85036228,17.0493697 3.75304763,16.7731231 2.81687708,16.2631295 C1.26682422,15.4202234 0.17718309,13.8760761 0.0160389798,12.2185969 C0.000691921683,11.8644347 -0.00698160737,11.5102724 0.00836545074,11.1631934 C0.146488974,9.81737698 0.867800705,8.52822646 1.98813595,7.64990414 C3.26194177,6.62991692 5.04220051,6.14117304 6.70735632,6.43158607 C6.72270337,7.47990627 6.6766622,8.52822646 6.6766622,9.57654666 C5.91698282,9.34988283 5.02685345,9.41363204 4.35925642,9.83862671 C3.87582409,10.1290397 3.5074947,10.5752841 3.31565647,11.0781945 C3.15451236,11.43944 3.20055354,11.8361017 3.20822707,12.2185969 C3.39239176,13.380249 4.60480935,14.3577367 5.89396224,14.2514881 C6.75339749,14.2444048 7.5744651,13.7839939 8.01952978,13.1110857 C8.16532684,12.8773386 8.32647095,12.6365083 8.33414447,12.3602618 C8.41087977,11.092361 8.38018565,9.83154346 8.38785918,8.56364269 C8.39553271,5.70909512 8.38018565,2.86163081 8.40320624,0.0141664891 Z" id="Path"></path>
                    </g>
                </g>
            </g>
        </g>
    </g>
</svg>